<svg width="16" height="14" viewBox="0 0 16 14" fill="none" xmlns="http://www.w3.org/2000/svg">
<path d="M4.27049 13.0751H11.7311C12.4416 13.0751 13.0546 12.5766 13.1995 11.881L14.8865 3.78347C14.9854 3.30911 14.4192 2.98558 14.0607 3.31153L11.0832 6.01834C10.6872 6.37834 10.0524 6.21964 9.8724 5.71564L8.47165 1.79354C8.31364 1.35109 7.68792 1.35109 7.52991 1.79354L6.12916 5.71564C5.94916 6.21964 5.31435 6.37834 4.91835 6.01834L1.94085 3.31153C1.58232 2.98558 1.0162 3.30911 1.11503 3.78347L2.80202 11.881C2.94693 12.5766 3.55997 13.0751 4.27049 13.0751Z" stroke="#1D2124" stroke-width="1.2" stroke-linecap="round"/>
<path d="M6.42578 10.375L9.57578 10.375" stroke="#1D2124" stroke-width="1.2" stroke-linecap="round"/>
</svg>
