<svg width="32" height="32" viewBox="0 0 32 32" fill="none" xmlns="http://www.w3.org/2000/svg">
<path d="M10.8723 14.1474C10.9737 13.4042 11.6084 12.8501 12.3586 12.8501H19.6399C20.39 12.8501 21.0248 13.4042 21.1261 14.1474L22.067 21.0474C22.1899 21.9481 21.4898 22.7501 20.5808 22.7501H11.4176C10.5087 22.7501 9.80859 21.9481 9.9314 21.0474L10.8723 14.1474Z" stroke="#1D2124" stroke-width="1.2" stroke-linejoin="round"/>
<path d="M18.9242 14.65V12.175C18.9242 10.5596 17.6147 9.25 15.9992 9.25V9.25C14.3838 9.25 13.0742 10.5596 13.0742 12.175V14.65" stroke="#1D2124" stroke-width="1.2" stroke-linecap="round"/>
<path d="M16 31C7.71573 31 1 24.2843 1 16H-1C-1 25.3888 6.61116 33 16 33V31ZM31 16C31 24.2843 24.2843 31 16 31V33C25.3888 33 33 25.3888 33 16H31ZM16 1C24.2843 1 31 7.71573 31 16H33C33 6.61116 25.3888 -1 16 -1V1ZM16 -1C6.61116 -1 -1 6.61116 -1 16H1C1 7.71573 7.71573 1 16 1V-1Z" fill="#1D2124"/>
</svg>
