<svg width="16" height="20" viewBox="0 0 16 20" fill="none" xmlns="http://www.w3.org/2000/svg">
<path d="M2.32309 6.79733C2.42444 6.0541 3.05923 5.5 3.80934 5.5H12.1907C12.9408 5.5 13.5756 6.0541 13.6769 6.79733L14.7678 14.7973C14.8906 15.698 14.1906 16.5 13.2816 16.5H2.71843C1.80945 16.5 1.10937 15.698 1.23218 14.7973L2.32309 6.79733Z" stroke="#1D2124" stroke-width="1.25" stroke-linejoin="round"/>
<path d="M11.25 7.5V4.75C11.25 2.95507 9.79493 1.5 8 1.5V1.5C6.20507 1.5 4.75 2.95507 4.75 4.75V7.5" stroke="#1D2124" stroke-width="1.25" stroke-linecap="round"/>
<path d="M6.1083 11.382C6.1083 10.5747 6.25297 9.94233 6.5423 9.485C6.8363 9.02767 7.32164 8.799 7.9983 8.799C8.67497 8.799 9.15797 9.02767 9.4473 9.485C9.74131 9.94233 9.88831 10.5747 9.88831 11.382C9.88831 12.194 9.74131 12.831 9.4473 13.293C9.15797 13.755 8.67497 13.986 7.9983 13.986C7.32164 13.986 6.8363 13.755 6.5423 13.293C6.25297 12.831 6.1083 12.194 6.1083 11.382ZM8.9223 11.382C8.9223 11.0367 8.89897 10.7473 8.8523 10.514C8.8103 10.276 8.72164 10.0823 8.5863 9.933C8.45564 9.78367 8.25964 9.709 7.9983 9.709C7.73697 9.709 7.53864 9.78367 7.4033 9.933C7.27264 10.0823 7.18397 10.276 7.1373 10.514C7.0953 10.7473 7.0743 11.0367 7.0743 11.382C7.0743 11.7367 7.0953 12.0353 7.1373 12.278C7.1793 12.516 7.26797 12.7097 7.4033 12.859C7.53864 13.0037 7.73697 13.076 7.9983 13.076C8.25964 13.076 8.45797 13.0037 8.5933 12.859C8.72864 12.7097 8.8173 12.516 8.8593 12.278C8.9013 12.0353 8.9223 11.7367 8.9223 11.382Z" fill="#1D2124"/>
</svg>
