<svg width="19" height="18" viewBox="0 0 19 18" fill="none" xmlns="http://www.w3.org/2000/svg">
<path d="M9.5 13.2006C11.433 13.2006 13 11.6327 13 9.69846C13 7.76426 11.433 6.19629 9.5 6.19629C7.567 6.19629 6 7.76426 6 9.69846C6 11.6327 7.567 13.2006 9.5 13.2006Z" stroke="white" stroke-width="1.25" stroke-linecap="round" stroke-linejoin="round"/>
<path d="M17.8996 5.30916L17.894 14.7453C17.891 15.0182 17.8342 15.2878 17.727 15.5388C17.6198 15.7897 17.4642 16.0171 17.2692 16.2079C17.0742 16.3987 16.8437 16.5492 16.5905 16.6508C16.3374 16.7523 16.0667 16.803 15.794 16.8H3.20052C2.92769 16.8033 2.65686 16.7528 2.40356 16.6513C2.15027 16.5498 1.91943 16.3993 1.7243 16.2085C1.52917 16.0177 1.37361 15.7902 1.26641 15.5392C1.1592 15.2881 1.10253 15.0184 1.09961 14.7453L1.09961 5.30916C1.10253 5.03631 1.15909 4.76672 1.26618 4.51578C1.37326 4.26484 1.5288 4.03749 1.72373 3.84668C1.91866 3.65588 2.14923 3.50538 2.40231 3.40378C2.65539 3.30218 2.92603 3.25147 3.1987 3.25455H5.82598L6.87598 1.19995H12.1316L13.1816 3.25455H15.807C16.3566 3.25007 16.8855 3.46385 17.2778 3.84901C17.67 4.23417 17.8937 4.75927 17.8996 5.30916Z" stroke="white" stroke-width="1.25" stroke-linecap="round" stroke-linejoin="round"/>
</svg>
