<svg width="14" height="14" viewBox="0 0 14 14" fill="none" xmlns="http://www.w3.org/2000/svg">
<path fill-rule="evenodd" clip-rule="evenodd" d="M2.04345 1.25C1.46738 1.25 1 1.72524 1 2.31027V2.9343C1 3.36765 1.16479 3.78439 1.45957 4.09785L4.69007 7.53288L4.69149 7.53072C5.31514 8.16919 5.66604 9.03228 5.66604 9.93221V12.9801C5.66604 13.1838 5.87913 13.3138 6.056 13.2177L7.8957 12.2153C8.17343 12.0636 8.34675 11.7689 8.34675 11.4489V9.92427C8.34675 9.02939 8.69267 8.16991 9.31064 7.53288L12.5411 4.09785C12.8352 3.78439 13 3.36765 13 2.9343V2.31027C13 1.72524 12.5333 1.25 11.9573 1.25H2.04345Z" stroke="white" stroke-width="1.25" stroke-linecap="round" stroke-linejoin="round"/>
</svg>
