<svg width="14" height="12" viewBox="0 0 14 12" fill="none" xmlns="http://www.w3.org/2000/svg">
<path d="M1.14453 4.04981C1.14453 9.08601 6.99452 11.1998 6.99452 11.1998C6.99452 11.1998 12.8445 9.08666 12.8445 4.04981C12.8445 3.18786 12.5021 2.36121 11.8926 1.75172C11.2831 1.14223 10.4565 0.799818 9.59452 0.799818C9.08835 0.798401 8.58901 0.916593 8.13718 1.14476C7.68536 1.37294 7.29384 1.70463 6.99452 2.11282C6.69524 1.70459 6.30378 1.37287 5.85195 1.14469C5.40012 0.916518 4.9007 0.798348 4.39453 0.799818C3.53257 0.799818 2.70601 1.14223 2.09652 1.75172C1.48703 2.36121 1.14453 3.18786 1.14453 4.04981Z" stroke="#1D2124" stroke-linecap="round" stroke-linejoin="round"/>
</svg>
