<svg width="16" height="16" viewBox="0 0 16 16" fill="none" xmlns="http://www.w3.org/2000/svg">
<path d="M7.23795 5.22369C7.26224 5.01454 7.36856 4.82265 7.53464 4.68816C7.70073 4.55367 7.9137 4.487 8.12905 4.5021C8.57898 4.5021 8.89767 4.71039 8.89767 5.08007C8.8759 5.29185 8.76905 5.48664 8.60044 5.62184C8.43183 5.75705 8.21515 5.82169 7.9978 5.80165C7.59016 5.80023 7.23795 5.60474 7.23795 5.22369ZM9.25133 10.0281C8.96637 10.1417 8.66398 10.2083 8.35658 10.225C7.93582 10.225 7.65433 10.0572 7.65433 9.65622C7.65397 9.57233 7.66578 9.4888 7.68935 9.40812L8.46086 6.59865H7.35901L6.57802 9.3406C6.53218 9.50536 6.506 9.67471 6.5 9.84532C6.5 10.5818 7.10452 10.9999 8.01751 10.9999C8.5242 11.004 9.02713 10.915 9.5 10.7375L9.25133 10.0281Z" fill="#73716E"/>
<path d="M8 14C11.3137 14 14 11.3137 14 8C14 4.68629 11.3137 2 8 2C4.68629 2 2 4.68629 2 8C2 11.3137 4.68629 14 8 14Z" stroke="#73716E" stroke-linecap="round" stroke-linejoin="round"/>
</svg>
